<?xml version="1.0" encoding="UTF-8" standalone="no"?>
<!-- Created with Inkscape (http://www.inkscape.org/) -->

<svg
   xmlns:dc="http://purl.org/dc/elements/1.1/"
   xmlns:cc="http://creativecommons.org/ns#"
   xmlns:rdf="http://www.w3.org/1999/02/22-rdf-syntax-ns#"
   xmlns:svg="http://www.w3.org/2000/svg"
   xmlns="http://www.w3.org/2000/svg"
   xmlns:sodipodi="http://sodipodi.sourceforge.net/DTD/sodipodi-0.dtd"
   xmlns:inkscape="http://www.inkscape.org/namespaces/inkscape"
   width="210mm"
   height="297mm"
   viewBox="0 0 744.09448819 1052.3622047"
   id="svg2"
   version="1.1"
   inkscape:version="0.91 r13725"
   sodipodi:docname="BonVivantLogo.svg">
  <defs
     id="defs4" />
  <sodipodi:namedview
     id="base"
     pagecolor="#ffffff"
     bordercolor="#666666"
     borderopacity="1.0"
     inkscape:pageopacity="0.0"
     inkscape:pageshadow="2"
     inkscape:zoom="0.70710678"
     inkscape:cx="79.522621"
     inkscape:cy="907.27185"
     inkscape:document-units="px"
     inkscape:current-layer="layer1"
     showgrid="false"
     showborder="false"
     inkscape:snap-text-baseline="true"
     inkscape:window-width="1600"
     inkscape:window-height="837"
     inkscape:window-x="-8"
     inkscape:window-y="-8"
     inkscape:window-maximized="1" />
  <metadata
     id="metadata7">
    <rdf:RDF>
      <cc:Work
         rdf:about="">
        <dc:format>image/svg+xml</dc:format>
        <dc:type
           rdf:resource="http://purl.org/dc/dcmitype/StillImage" />
        <dc:title />
      </cc:Work>
    </rdf:RDF>
  </metadata>
  <g
     inkscape:label="Layer 1"
     inkscape:groupmode="layer"
     id="layer1">
    <path
       style="color:#000000;font-style:normal;font-variant:normal;font-weight:normal;font-stretch:normal;font-size:medium;line-height:normal;font-family:sans-serif;text-indent:0;text-align:start;text-decoration:none;text-decoration-line:none;text-decoration-style:solid;text-decoration-color:#000000;letter-spacing:normal;word-spacing:normal;text-transform:none;direction:ltr;block-progression:tb;writing-mode:lr-tb;baseline-shift:baseline;text-anchor:start;white-space:normal;clip-rule:nonzero;display:inline;overflow:visible;visibility:visible;opacity:1;isolation:auto;mix-blend-mode:normal;color-interpolation:sRGB;color-interpolation-filters:linearRGB;solid-color:#000000;solid-opacity:1;fill:#000000;fill-opacity:1;fill-rule:nonzero;stroke:none;stroke-width:5;stroke-linecap:butt;stroke-linejoin:miter;stroke-miterlimit:4;stroke-dasharray:none;stroke-dashoffset:0;stroke-opacity:1;color-rendering:auto;image-rendering:auto;shape-rendering:auto;text-rendering:auto;enable-background:accumulate"
       d="m 557.09324,59.356289 -9.42027,6.82614 -23.73492,17.199355 -31.6155,-9.932845 -22.72713,23.69042 -32.93123,-4.250788 -18.0427,27.294969 -33.1925,1.57488 -12.7843,30.00911 -32.39004,7.35748 -7.10133,31.78507 -30.53772,12.91507 -1.1991,32.52705 -27.70086,18.03704 1.20378,8.18565 -74.83485,0.6893 31.29353,123.61713 -30.93425,128.4854 83.2286,0 -1.72635,19.53538 28.71805,16.45261 3.09342,32.40254 31.24222,11.16788 8.95831,31.32076 32.75864,5.5289 14.52465,29.24796 33.22051,-0.29185 19.61505,26.22745 32.61865,-6.09375 24.08019,22.37879 30.9763,-11.69441 27.77085,17.8073 28.34941,-16.92171 30.57037,12.67094 24.80808,-21.59852 32.40399,7.11815 20.46891,-25.59083 33.1925,1.34033 2.50555,-4.65767 12.97092,-24.11164 32.92192,-4.48056 9.98483,-31.02391 31.58752,-10.1722 4.16655,-32.28769 29.24525,-15.54308 -1.79634,-32.5175 0.79317,-0.62226 -1.99695,0 90.38598,-0.83296 -31.2936,-123.61231 30.9343,-128.49019 -78.1102,0 -18.52791,-12.93422 -0.11672,-32.55577 -30.10843,-13.86768 -6.05158,-31.99092 -32.12874,-8.37707 -11.78115,-30.41121 -33.13187,-2.62804 -17.12813,-27.835861 -33.06658,3.192861 -21.9246,-24.398836 -31.93742,8.937142 -26.02586,-20.176817 -29.77719,14.370302 -22.81577,-11.914613 0,-8.075519 z"
       id="path4546"
       inkscape:connector-curvature="0" />
    <path
       style="color:#000000;font-style:normal;font-variant:normal;font-weight:normal;font-stretch:normal;font-size:medium;line-height:normal;font-family:sans-serif;text-indent:0;text-align:start;text-decoration:none;text-decoration-line:none;text-decoration-style:solid;text-decoration-color:#000000;letter-spacing:normal;word-spacing:normal;text-transform:none;direction:ltr;block-progression:tb;writing-mode:lr-tb;baseline-shift:baseline;text-anchor:start;white-space:normal;clip-rule:nonzero;display:inline;overflow:visible;visibility:visible;opacity:1;isolation:auto;mix-blend-mode:normal;color-interpolation:sRGB;color-interpolation-filters:linearRGB;solid-color:#000000;solid-opacity:1;fill:#ececec;fill-opacity:1;fill-rule:nonzero;stroke:none;stroke-width:2;stroke-linecap:butt;stroke-linejoin:miter;stroke-miterlimit:4;stroke-dasharray:none;stroke-dashoffset:0;stroke-opacity:1;color-rendering:auto;image-rendering:auto;shape-rendering:auto;text-rendering:auto;enable-background:accumulate"
       d="m 551.12099,71.184729 -26.1285,18.937019 -30.95292,-9.727007 -22.26057,23.202139 -32.2267,-4.159801 -17.66475,26.725281 -32.47396,1.54141 -12.5137,29.37244 -31.6668,7.19471 -6.9474,31.09578 -29.84715,12.62307 -1.1711,31.80899 -27.06634,17.6254 1.6517,11.21574 4.93642,-0.0477 -1.30643,-8.85579 26.58106,-17.3142 1.1478,-31.2346 29.31525,-12.39331 6.8214,-30.54047 31.10227,-7.06547 12.28507,-28.8507 31.89075,-1.51744 17.34746,-26.23703 31.6575,4.07844 21.84995,-22.780895 30.40237,9.549865 25.65727,-18.601895 28.17211,14.714927 28.64339,-13.815018 25.03201,19.401345 30.69634,-8.582924 21.09876,23.465445 31.7648,-3.08281 16.47495,26.77795 31.82545,2.52272 11.32389,29.22408 30.85965,8.04678 5.80425,30.73675 28.89535,13.31715 0.11673,31.25375 19.10646,13.34108 8.42177,0 -22.64781,-15.81114 -0.11672,-31.83295 -29.42259,-13.55173 -5.92088,-31.29679 -31.41019,-8.19039 -11.53385,-29.76501 -32.40403,-2.57056 -16.77357,-27.25666 -32.35734,3.12585 -21.47205,-23.891431 -31.26555,8.745685 -25.48929,-19.760358 -29.15661,14.073491 -28.68536,-14.97821 0,-0.0048 z m 25.15803,27.52472 c -118.58817,0 -220.59457,69.745111 -265.61955,169.662391 l 10.06413,-0.091 -4.03125,-1.66107 c 2.16954,-4.62845 4.46592,-9.18313 6.88205,-13.67139 l 0,-0.005 27.16432,15.05959 6.95673,-0.0624 0,-1.34038 0,-2.45089 3.56465,0 c 42.34669,-72.44877 122.18534,-121.32404 213.82447,-121.32404 91.64092,0 171.48712,48.87332 213.83378,121.32417 l 5.54299,0 c -1.33579,-2.34278 -2.69754,-4.66999 -4.10589,-6.96492 l 30.04309,-19.11412 c 2.67691,4.31049 5.22026,8.70943 7.66126,13.16879 l -26.64173,12.91025 8.94432,0 19.01785,-10.46894 c 1.84088,3.4446 3.59198,6.94308 5.291,10.46894 l 5.2677,0 C 793.96689,166.50011 693.18647,98.709449 576.27902,98.709449 Z m 0,4.901801 c 2.48208,0 4.95648,0.0296 7.42328,0.091 L 581.72402,138.01 c -2.2059,-0.0563 -4.41982,-0.0812 -6.63945,-0.0812 -1.18838,0 -2.37083,0.026 -3.55533,0.0432 l -1.87099,-34.27424 c 2.20155,-0.0491 4.4071,-0.0814 6.62077,-0.0814 l 0,-0.005 z m -9.81218,0.18187 0.14486,34.28858 c -3.41526,0.11115 -6.81532,0.27397 -10.19482,0.51701 l -3.97523,-34.01097 c 4.644,-0.37555 9.32075,-0.63914 14.02538,-0.79462 z m 20.42221,0.0286 c 4.70332,0.1681 9.3784,0.44481 14.02075,0.83291 l -4.09656,34.19287 c -3.37145,-0.28307 -6.7587,-0.49976 -10.16679,-0.65101 l 0.2427,-34.37477 z m -37.62038,1.03876 2.2536,34.145 c -3.40897,0.3107 -6.79867,0.69179 -10.16678,1.1345 l -6.05624,-33.65186 c 4.62235,-0.65007 9.27809,-1.19685 13.96942,-1.62754 z m 54.81855,0.0718 c 4.69002,0.44348 9.34413,1.00308 13.96473,1.66586 l -6.21018,33.95357 c -3.35332,-0.48152 -6.72987,-0.90383 -10.12478,-1.25421 l 2.37023,-34.36522 z m -71.93737,2.00093 4.34854,33.88175 c -3.39825,0.51304 -6.76824,1.10223 -10.12014,1.74722 l -8.10918,-33.17806 c 4.58752,-0.92635 9.21548,-1.74273 13.88078,-2.45091 z m 89.04689,0.12918 c 4.664,0.72111 9.29026,1.54996 13.87606,2.48921 l -8.31446,33.59451 c -3.32705,-0.68126 -6.68085,-1.29198 -10.0548,-1.84294 l 4.4932,-34.24078 z m -106.02109,2.98227 6.41082,33.48918 c -3.3717,0.71623 -6.72102,1.48869 -10.04082,2.33603 l -10.1248,-32.5366 c 4.54109,-1.20411 9.12664,-2.30123 13.7548,-3.28861 z m 122.99525,0.16763 c 4.62375,0.99994 9.20449,2.11052 13.74082,3.3269 l -10.4001,33.09667 c -3.29265,-0.88186 -6.60698,-1.71275 -9.95213,-2.46526 l 6.61141,-33.95834 z m -139.79213,3.93006 8.45442,32.97698 c -3.34077,0.92141 -6.64609,1.91607 -9.92884,2.9679 L 484.7966,118.25906 c 4.47714,-1.48089 9.00837,-2.85033 13.58217,-4.11673 z m 156.57972,0.21545 c 4.5685,1.27877 9.09195,2.6669 13.56348,4.15979 L 656.0596,150.9872 c -3.2426,-1.08056 -6.5208,-2.08199 -9.82151,-3.03489 l 8.7204,-33.59451 z m -173.1293,4.92091 10.47001,32.33557 c -3.29705,1.12655 -6.5654,2.30572 -9.79816,3.56145 L 468.4756,124.23317 c 4.39859,-1.75663 8.84839,-3.40954 13.35359,-4.95446 z m 189.65558,0.25839 c 4.50282,1.55808 8.94852,3.22777 13.34418,4.99752 l -14.48268,31.70848 c -3.19053,-1.28143 -6.40803,-2.50695 -9.66285,-3.662 l 10.80135,-33.044 z m -205.89727,5.84961 12.4297,31.57919 c -3.24101,1.33074 -6.44136,2.73981 -9.61155,4.19811 L 452.4859,131.16445 c 4.30665,-2.03106 8.67794,-3.95535 13.1016,-5.77779 z m 222.12959,0.30647 c 4.41953,1.83531 8.7809,3.78193 13.0829,5.82569 l -16.47027,30.82766 c -3.12138,-1.4784 -6.28443,-2.88714 -9.47628,-4.24118 l 12.86365,-32.41217 z m -238.00735,6.82136 14.3427,30.70319 c -3.17709,1.53558 -6.3209,3.12539 -9.42027,4.78692 L 436.9208,139.12047 c 4.19925,-2.30305 8.46184,-4.50798 12.78894,-6.60592 z m 253.86641,0.35422 c 4.3206,2.10987 8.57797,4.32483 12.77029,6.63946 l -18.39725,29.81284 c -3.04394,-1.67479 -6.12209,-3.29663 -9.24295,-4.84915 l 14.86991,-31.60314 z m -269.34286,7.72606 16.1997,29.70277 c -3.09889,1.73778 -6.14965,3.54766 -9.16365,5.4092 l -19.46107,-27.70184 c 4.07243,-2.56919 8.21378,-5.04166 12.42502,-7.41013 z m 284.79135,0.3973 c 4.20671,2.38155 8.34371,4.86633 12.41101,7.44846 l -20.26823,28.67833 c -2.95605,-1.86936 -5.96052,-3.66938 -9.00033,-5.41875 l 16.85755,-30.70802 z m -299.76855,8.64998 17.99131,28.60655 c -3.00991,1.93852 -5.9754,3.93799 -8.89301,5.99797 l -21.12679,-26.395 c 3.93404,-2.83403 7.944,-5.57189 12.02849,-8.20953 z m 314.72711,0.44038 c 4.07795,2.64984 8.0828,5.39711 12.00979,8.24305 l -22.07392,27.41941 c -2.85585,-2.06066 -5.75047,-4.07384 -8.69707,-6.01714 l 18.7612,-29.64532 z m -150.31356,2.90566 -102.8903,111.16154 6.58815,0 102.60566,-110.85517 a 237.69472,230.38431 0 0 0 -6.30351,-0.30648 z m -31.05559,1.0244 a 237.69472,230.38431 0 0 0 -7.3953,0.87119 l -101.13596,109.26597 6.58811,0 101.94315,-110.13714 z m 64.7287,2.30726 -99.8062,107.82988 6.5881,0 99.02239,-106.9826 a 237.69472,230.38431 0 0 0 -5.80429,-0.84728 z m -212.54601,3.29342 19.71303,27.39068 c -2.90877,2.13683 -5.76708,4.33591 -8.57577,6.59154 l -22.70846,-24.98765 c 3.77648,-3.09192 7.63245,-6.09392 11.5712,-8.99457 z m 343.61778,0.49303 c 3.9291,2.91098 7.77668,5.92156 11.54318,9.02332 l -23.79556,26.0408 c -2.74294,-2.24796 -5.53425,-4.43885 -8.3751,-6.57245 l 20.62748,-28.49167 z m -240.4662,2.45091 a 237.69472,230.38431 0 0 0 -9.3876,3.02053 l -91.2351,98.57194 6.58808,0 94.03462,-101.59249 z m 139.73617,0.77549 -93.31609,100.81703 6.59277,0 91.68773,-99.06025 a 237.69472,230.38431 0 0 0 -4.96441,-1.75678 z m -256.7452,7.17076 21.36006,26.07911 c -2.7939,2.33129 -5.53525,4.71887 -8.22116,7.16599 l -24.21085,-23.50374 c 3.6003,-3.34194 7.29746,-6.58496 11.07195,-9.74136 z m 371.30935,0.5218 c 3.7673,3.16877 7.46078,6.4207 11.05328,9.77485 l -25.44728,24.55206 c -2.62024,-2.43334 -5.29945,-4.80573 -8.02519,-7.1277 l 22.41919,-27.19921 z m -87.3532,2.6232 -83.7698,90.50127 6.6021,0 81.7682,-88.34236 a 237.69472,230.38431 0 0 0 -4.6005,-2.15891 z m -297.16505,8.61647 22.92311,24.65732 c -2.66485,2.52057 -5.2711,5.09792 -7.8199,7.73088 l -25.61056,-21.89532 c 3.40916,-3.58715 6.9116,-7.08532 10.50735,-10.49288 z m 397.69448,0.5744 c 3.585,3.41718 7.07667,6.92536 10.47473,10.52164 l -26.99168,22.93887 c -2.48142,-2.61073 -5.01548,-5.17049 -7.60992,-7.67342 l 24.12687,-25.78709 z m -75.70267,3.63327 -71.90006,77.67713 6.5928,0 69.55781,-75.14963 a 237.69472,230.38431 0 0 0 -4.25055,-2.5275 z m -255.64875,5.2991 a 237.69472,230.38431 0 0 0 -20.3289,14.8442 l -45.32828,48.97485 a 237.69472,230.38431 0 0 0 -5.23503,8.55898 l 3.89595,0 66.99626,-72.37803 z m -78.85205,3.09714 24.4068,23.14472 c -2.52141,2.70383 -4.97951,5.47365 -7.37665,8.28614 L 355.33454,206.0701 c 3.19605,-3.81881 6.49206,-7.55518 9.88686,-11.20136 z m 422.67515,0.59837 c 3.38674,3.65872 6.66697,7.41327 9.8542,11.24444 l -28.43808,21.2395 c -2.32893,-2.78122 -4.7265,-5.51297 -7.17603,-8.19036 l 25.75991,-24.29358 z m -65.47055,6.19426 0,0.003 -57.8373,62.48353 6.58812,0 55.16843,-59.60178 a 237.69472,230.38431 0 0 0 -3.91925,-2.88483 z m -368.92045,6.63466 25.79254,21.54106 c -2.36424,2.88093 -4.65969,5.82255 -6.89135,8.80792 L 344.2859,220.17242 c 2.9655,-4.04046 6.04325,-8.00121 9.21965,-11.87634 z m 446.07419,0.63667 c 3.1667,3.88657 6.23648,7.85824 9.19163,11.90982 l -29.78648,19.43959 c -2.16409,-2.94567 -4.38435,-5.85179 -6.67679,-8.69779 l 27.27164,-22.65162 z m -56.5122,10.21046 -41.65634,45.00647 6.58814,0 38.66085,-41.76574 a 237.69472,230.38431 0 0 0 -3.59265,-3.24073 z m -400.45199,3.3269 27.07567,19.86565 c -2.19372,3.0515 -4.32082,6.1494 -6.3735,9.30098 L 334.1191,235.00222 c 2.7207,-4.25568 5.5522,-8.43427 8.49645,-12.53213 z m 467.81219,0.67973 c 2.93096,4.10524 5.75201,8.28884 8.4591,12.55125 l -31.00425,17.54407 c -1.9875,-3.10434 -4.04449,-6.15312 -6.16822,-9.16219 l 28.71337,-20.93314 z m -477.81565,14.21714 28.2561,18.0993 c -2.0046,3.20681 -3.93454,6.46841 -5.79027,9.77003 l -30.18308,-14.73888 c 2.45385,-4.45056 5.02811,-8.82914 7.71725,-13.13045 z m 428.988,1.47435 -23.427,25.30835 6.59276,0 19.84834,-21.44055 a 237.69472,230.38431 0 0 0 -3.0141,-3.8678 z m 16.16235,22.17774 -2.89745,3.13061 4.75441,0 a 237.69472,230.38431 0 0 0 -1.85696,-3.13061 z m 81.9082,243.81162 -7.88989,0.0764 -2.02961,1.59406 1.71233,31.21542 -28.05547,14.91121 -4.00325,31.01437 -30.3324,9.76529 -9.5929,29.81286 -31.62015,4.31301 -14.87925,27.65875 -31.89545,-1.29246 -19.68501,24.60949 -31.1489,-6.84049 -23.86094,20.77519 -29.4039,-12.18269 -27.25295,16.2707 -26.71173,-17.12277 -29.79117,11.24444 -23.1517,-21.52193 -31.36355,5.86396 -18.85916,-25.22702 -31.9281,0.273 -13.95075,-28.11347 -31.47085,-5.2991 -8.60375,-30.10488 -29.9871,-10.72266 -2.97679,-31.12451 -27.55626,-15.78721 1.73103,-19.65026 -4.90377,0 -1.96431,22.25434 28.06015,16.07445 3.02345,31.69413 30.5377,10.91412 8.76701,30.65061 32.03544,5.4044 14.2167,28.6305 32.50196,-0.28244 19.20915,25.68176 31.92809,-5.96445 23.58095,21.91443 30.3324,-11.45029 27.19698,17.43872 27.76155,-16.5723 29.9358,12.40767 24.29483,-21.15338 31.7181,6.96981 20.04434,-25.05948 32.47865,1.3116 0.72318,-1.34511 14.4267,-26.82108 32.1987,-4.38 9.77018,-30.36336 30.87832,-9.9424 4.0779,-31.58402 28.57338,-15.18405 -1.75435,-31.78986 4.90844,-3.86303 z m -21.21075,0.1963 -5.361,0.0528 c -1.3342,2.69087 -2.69385,5.36809 -4.11524,8.00852 l -14.14208,-7.84095 -8.08582,0.0719 20.90745,10.21527 c -2.45381,4.45055 -5.02808,8.82921 -7.71721,13.13052 L 789.9775,509.46946 c 0.0465,-0.0754 0.0885,-0.1542 0.13527,-0.22984 l -5.68761,0 c -43.34989,68.37714 -120.84069,113.96195 -209.34062,113.96195 -88.49992,0 -165.99073,-45.58481 -209.34062,-113.96195 l -5.68762,0 c 0.14379,0.23296 0.2802,0.47117 0.42459,0.70369 l -28.32144,18.01315 c -2.67621,-4.30934 -5.22083,-8.70112 -7.66125,-13.15922 l 11.46855,-5.55762 -7.13869,0 -5.65029,3.11154 c -0.54885,-1.027 -1.06118,-2.07571 -1.5957,-3.11154 l -5.37032,0 c 47.49127,93.67987 146.11841,158.0781 260.06724,158.0781 115.6527,0 215.54083,-66.32852 262.18086,-162.29057 z m -437.48445,4.2125 -13.03159,14.07832 a 237.69472,230.38431 0 0 0 3.0141,3.8726 l 16.61494,-17.95092 -6.59745,0 z m 36.76655,0 -31.84414,34.40351 a 237.69472,230.38431 0 0 0 3.59269,3.24553 l 34.8489,-37.64904 -6.59745,0 z m 36.82251,0 -48.35171,52.23952 a 237.69472,230.38431 0 0 0 3.91925,2.88651 l 51.02526,-55.12603 -6.5928,0 z m 36.76654,0 -62.74574,67.79219 a 237.69472,230.38431 0 0 0 4.25055,2.52747 l 65.08795,-70.31966 -6.59276,0 z m 36.6872,0 -74.95614,80.9849 a 237.69472,230.38431 0 0 0 4.6005,2.15887 l 76.95777,-83.14377 -6.60213,0 z m 36.76653,0 -84.87563,91.69802 a 237.69472,230.38431 0 0 0 4.96441,1.75679 l 86.50399,-93.45481 -6.59277,0 z m 36.83652,0 -92.21029,99.62035 a 237.69472,230.38431 0 0 0 5.80429,0.84726 l 92.99411,-100.46761 -6.58811,0 z m 36.75723,0 -95.79363,103.49293 a 237.69472,230.38431 0 0 0 6.30348,0.30648 l 96.07823,-103.79931 -6.58808,0 z m 36.69187,0 -95.1264,102.77493 a 237.69472,230.38431 0 0 0 7.3953,-0.87125 l 94.3239,-101.90368 -6.5928,0 z m 36.76186,0 -87.22253,94.23507 a 237.69472,230.38431 0 0 0 9.3876,-3.02052 l 84.42772,-91.21455 -6.59279,0 z m 36.83654,0 -60.1842,65.02056 a 237.69472,230.38431 0 0 0 20.3289,-14.84418 l 45.32828,-48.97486 a 237.69472,230.38431 0 0 0 0.73252,-1.20152 l -6.2055,0 z m 18.8172,4.16461 30.95291,17.63017 c -2.72066,4.25566 -5.55216,8.43425 -8.49641,12.53213 l -28.64805,-21.01931 c 2.13128,-3.00092 4.19603,-6.04669 6.19155,-9.14298 z m -424.56484,0.3734 c 2.04399,3.15895 4.16007,6.26566 6.34549,9.32485 L 342.1303,542.8819 c -2.93093,-4.10524 -5.75201,-8.28885 -8.4591,-12.55129 l 29.24995,-16.55311 z m 415.62514,12.56086 29.72581,19.52577 c -2.96618,4.04136 -6.04238,8.00026 -9.2196,11.87633 l -27.2063,-22.72348 c 2.30075,-2.83915 4.52735,-5.73958 6.70009,-8.67862 z m -406.58284,0.46428 c 2.22424,2.99414 4.51077,5.94212 6.86809,8.83189 l -25.85324,21.46448 c -3.1667,-3.88658 -6.23648,-7.85345 -9.19163,-11.90503 l 28.17678,-18.39134 z m 396.8873,11.83804 28.37275,21.32091 c -3.1968,3.81971 -6.49125,7.55913 -9.88683,11.20613 l -25.68525,-24.36057 c 2.45737,-2.67033 4.86228,-5.39199 7.19933,-8.16647 z m -387.07511,0.54093 c 2.39058,2.82162 4.84731,5.59218 7.36263,8.30524 l -24.47678,23.07772 c -3.3867,-3.65864 -6.66694,-7.41325 -9.8542,-11.24447 l 26.96835,-20.13849 z m 376.63305,11.07212 26.92635,23.02025 c -3.4092,3.58714 -6.91164,7.08531 -10.5074,10.49288 L 750.7801,557.89841 c 2.59987,-2.49382 5.14132,-5.04294 7.62859,-7.64468 z M 392.3297,550.8521 c 2.54202,2.64139 5.14279,5.22563 7.80124,7.75478 l -22.99777,24.59032 c -3.585,-3.41718 -7.07667,-6.92536 -10.47472,-10.52159 L 392.3297,550.8521 Z m 354.98839,10.31097 25.37261,24.62386 c -3.6003,3.34191 -7.29746,6.58498 -11.07195,9.74138 l -22.32588,-27.25668 c 2.72937,-2.31169 5.40087,-4.68549 8.02522,-7.10856 z m -343.7718,0.63184 c 2.67995,2.4559 5.40953,4.85939 8.19781,7.19953 l -21.4347,26.01209 c -3.76726,-3.16879 -7.46075,-6.42074 -11.05328,-9.77487 l 24.29017,-23.43675 z m 332.06528,9.5212 23.72093,26.10777 c -3.77645,3.09192 -7.63245,6.09397 -11.57116,8.99461 l -20.54824,-28.5539 c 2.84787,-2.12613 5.64834,-4.30768 8.39847,-6.54847 z m -320.24678,0.67017 c 2.80268,2.26421 5.66336,4.46042 8.5664,6.60595 l -19.78767,27.33324 c -3.9291,-2.91196 -7.77668,-5.92159 -11.54322,-9.0233 l 22.76449,-24.91589 z m 307.97105,8.71698 21.9946,27.47684 c -3.934,2.83409 -7.944,5.57187 -12.02845,8.20954 L 714.62477,586.6869 c 2.95002,-1.93371 5.85143,-3.93259 8.71107,-5.98364 z m -295.56935,0.66537 c 2.91196,2.06853 5.86976,4.0795 8.87435,6.02672 l -18.07065,28.55393 c -4.07679,-2.64919 -8.0792,-5.39789 -12.0051,-8.24304 l 21.2014,-26.33761 z m 282.79905,7.93192 20.18426,28.73102 c -4.07245,2.56916 -8.2138,5.04166 -12.42505,7.41013 l -16.76888,-30.75587 c 3.04182,-1.73922 6.05112,-3.52612 9.00967,-5.38528 z m -269.90744,0.65104 c 3.01087,1.87143 6.06285,3.68545 9.15899,5.43312 l -16.28369,29.65487 c -4.20671,-2.38152 -8.34368,-4.86621 -12.41101,-7.4484 l 19.53571,-27.63959 z m 256.66589,7.09895 18.31328,29.86074 c -4.19928,2.30302 -8.46187,4.508 -12.789,6.60595 L 688.067,601.87098 c 3.12495,-1.54362 6.20869,-3.15445 9.25699,-4.82043 z m -243.31702,0.63665 c 3.09368,1.6698 6.22988,3.27158 9.40162,4.81567 l -14.42669,30.66012 c -4.32061,-2.1099 -8.57798,-4.3248 -12.77033,-6.63945 l 17.7954,-28.83634 z m 229.68352,6.3044 16.38165,30.87555 c -4.30665,2.03104 -8.6779,3.95538 -13.10159,5.77777 l -12.76561,-32.44089 c 3.19448,-1.34463 6.36116,-2.74339 9.48555,-4.21243 z m -215.93805,0.57919 c 3.16703,1.46782 6.36406,2.88656 9.60221,4.22682 l -12.5137,31.54098 c -4.41953,-1.83529 -8.78086,-3.78195 -13.0829,-5.82568 l 15.99439,-29.94212 z m 201.93596,5.48102 14.394,31.74676 c -4.39856,1.75661 -8.84835,3.40957 -13.35351,4.95445 l -10.70802,-33.07274 c 3.25563,-1.14517 6.47583,-2.35694 9.66753,-3.62847 z m -187.8406,0.54093 c 3.229,1.26462 6.49069,2.45937 9.7842,3.59497 l -10.5587,32.30682 c -4.50281,-1.55809 -8.94851,-3.22777 -13.34421,-4.99751 l 14.11871,-30.90428 z m 173.5446,4.67678 12.36904,32.50309 c -4.47714,1.48087 -9.00834,2.85036 -13.58214,4.11675 l -8.62241,-33.60886 c 3.30548,-0.94423 6.58793,-1.93882 9.83551,-3.01098 z m -159.15991,0.45955 c 3.27941,1.06081 6.58181,2.06601 9.9195,2.99663 l -8.5524,32.94825 c -4.56854,-1.27874 -9.09199,-2.66695 -13.56352,-4.1598 l 12.19642,-31.78508 z m 144.59795,3.8487 10.30675,33.12062 c -4.5411,1.20411 -9.1266,2.30116 -13.7548,3.28857 l -6.50412,-33.97746 c 3.3444,-0.74277 6.65988,-1.55979 9.95217,-2.43173 z m -129.966,0.40209 c 3.3187,0.85691 6.66521,1.64372 10.03615,2.36947 l -6.51345,33.4701 c -4.62375,-0.99996 -9.20449,-2.11055 -13.74079,-3.32691 l 10.21809,-32.51266 z m 115.20805,3.05404 8.21648,33.61366 c -4.58752,0.92635 -9.21548,1.74275 -13.88077,2.45091 l -4.3952,-34.25991 c 3.37452,-0.54157 6.73159,-1.13281 10.05949,-1.80466 z m -100.38479,0.30646 c 3.3489,0.65398 6.72,1.24419 10.11547,1.76634 l -4.44183,33.86259 c -4.66404,-0.72107 -9.2903,-1.5499 -13.87614,-2.48917 l 8.2025,-33.13976 z m 85.45889,2.23548 6.1122,33.96792 c -4.62239,0.65007 -9.27809,1.19685 -13.96945,1.62754 l -2.26759,-34.36043 c 3.39589,-0.34119 6.77032,-0.76271 10.12484,-1.23503 z m -70.4863,0.2249 c 3.3667,0.45188 6.75435,0.84331 10.16211,1.1632 l -2.35155,34.13544 c -4.69001,-0.44351 -9.34416,-1.00308 -13.9648,-1.66586 l 6.15424,-33.63278 z m 55.45773,1.44087 3.99862,34.20243 c -4.64404,0.37557 -9.3208,0.63914 -14.02544,0.79466 l -0.14464,-34.37483 c 3.4089,-0.14203 6.7989,-0.34843 10.17143,-0.62226 z m -40.39653,0.14852 c 3.37706,0.2522 6.77711,0.41611 10.19013,0.53612 l -0.2427,34.28386 c -4.70332,-0.16796 -9.37838,-0.44486 -14.02073,-0.83293 l 4.07325,-33.98705 z m 25.30266,0.64142 1.87565,34.30778 c -2.20155,0.049 -4.40711,0.0811 -6.62078,0.0811 -2.48208,0 -4.95648,-0.0294 -7.42328,-0.091 l 1.97363,-34.27428 c 1.41675,0.0234 2.83283,0.0528 4.2552,0.0528 1.98537,0 3.96518,-0.0325 5.93958,-0.0764 z"
       id="path4136"
       inkscape:connector-curvature="0" />
    <path
       style="color:#000000;font-style:normal;font-variant:normal;font-weight:normal;font-stretch:normal;font-size:medium;line-height:normal;font-family:sans-serif;text-indent:0;text-align:start;text-decoration:none;text-decoration-line:none;text-decoration-style:solid;text-decoration-color:#000000;letter-spacing:normal;word-spacing:normal;text-transform:none;direction:ltr;block-progression:tb;writing-mode:lr-tb;baseline-shift:baseline;text-anchor:start;white-space:normal;clip-rule:nonzero;display:inline;overflow:visible;visibility:visible;opacity:1;isolation:auto;mix-blend-mode:normal;color-interpolation:sRGB;color-interpolation-filters:linearRGB;solid-color:#000000;solid-opacity:1;fill:#f2f2f2;fill-opacity:1;fill-rule:evenodd;stroke:none;stroke-width:2;stroke-linecap:butt;stroke-linejoin:miter;stroke-miterlimit:4;stroke-dasharray:none;stroke-dashoffset:0;stroke-opacity:1;color-rendering:auto;image-rendering:auto;shape-rendering:auto;text-rendering:auto;enable-background:accumulate"
       d="m 378.00104,284.98238 0,2.45089 0,1.15363 -144.02405,1.32599 24.5048,96.80091 -24.47682,101.69301 146.38493,0 391.77824,0 0,-3.59971 144.02406,-1.33076 -24.5048,-96.79605 24.4768,-101.69791 -146.38496,0 -391.7782,0 z m 4.77776,4.90178 387.00044,0 140.28206,0 -23.301,96.82964 23.2684,91.91817 -142.63835,1.3164 0,3.55666 -387.00045,0 -140.28206,0 23.30103,-96.82474 -23.26837,-91.92303 142.6383,-1.31162 0,-3.56148 z"
       id="rect4326"
       inkscape:connector-curvature="0" />
    <text
       xml:space="preserve"
       style="font-style:normal;font-variant:normal;font-weight:normal;font-stretch:normal;font-size:140.46150208px;line-height:125%;font-family:'Baskerville Old Face';-inkscape-font-specification:'Baskerville Old Face, Normal';text-align:start;letter-spacing:0px;word-spacing:0px;writing-mode:lr-tb;text-anchor:start;opacity:1;fill:#ececec;fill-opacity:1;stroke:none;stroke-width:1px;stroke-linecap:butt;stroke-linejoin:miter;stroke-opacity:1"
       x="284.02679"
       y="415.40381"
       id="text4322"
       sodipodi:linespacing="125%"
       transform="scale(0.95168096,1.0507723)"><tspan
         sodipodi:role="line"
         id="tspan4324"
         x="284.02679"
         y="415.40381">Bon Vivant</tspan></text>
    <path
       style="color:#000000;font-style:normal;font-variant:normal;font-weight:normal;font-stretch:normal;font-size:medium;line-height:normal;font-family:sans-serif;text-indent:0;text-align:start;text-decoration:none;text-decoration-line:none;text-decoration-style:solid;text-decoration-color:#000000;letter-spacing:normal;word-spacing:normal;text-transform:none;direction:ltr;block-progression:tb;writing-mode:lr-tb;baseline-shift:baseline;text-anchor:start;white-space:normal;clip-rule:nonzero;display:inline;overflow:visible;visibility:visible;opacity:1;isolation:auto;mix-blend-mode:normal;color-interpolation:sRGB;color-interpolation-filters:linearRGB;solid-color:#000000;solid-opacity:1;fill:#ececec;fill-opacity:1;fill-rule:evenodd;stroke:none;stroke-width:2;stroke-linecap:butt;stroke-linejoin:miter;stroke-miterlimit:4;stroke-dasharray:none;stroke-dashoffset:0;stroke-opacity:1;color-rendering:auto;image-rendering:auto;shape-rendering:auto;text-rendering:auto;enable-background:accumulate"
       d="m 354.31704,267.61582 0,2.45089 0,1.34037 -149.9076,1.37865 29.74913,117.52338 -29.46453,122.39643 172.31745,0 412.08385,0 0,-3.78643 149.90756,-1.38341 -29.7491,-117.5186 29.4645,-122.40128 -172.31746,0 -412.0838,0 z m 4.77776,4.90178 407.30604,0 166.21466,0 -28.2888,117.52823 28.5127,112.64552 -148.52186,1.37383 0,3.73858 -407.30605,0 -166.21459,0 28.28875,-117.52338 -28.5127,-112.65032 148.52185,-1.36904 0,-3.74342 z"
       id="path4345"
       inkscape:connector-curvature="0" />
  </g>
</svg>
